<?xml version="1.0" encoding="UTF-8" standalone="no"?>
<!DOCTYPE svg PUBLIC "-//W3C//DTD SVG 1.1//EN" "http://www.w3.org/Graphics/SVG/1.1/DTD/svg11.dtd">
<svg width="100%" height="100%" viewBox="0 0 153 53" version="1.1" xmlns="http://www.w3.org/2000/svg"
  xmlns:xlink="http://www.w3.org/1999/xlink" xml:space="preserve" xmlns:serif="http://www.serif.com/"
  style="fill-rule:evenodd;clip-rule:evenodd;stroke-linecap:round;">
  <g transform="matrix(1,0,0,1.15765,6.45997,43.6804)">
    <clipPath id="_clip1">
      <rect x="-4" y="-35.607" width="147.191" height="41.515" />
    </clipPath>
    <g clip-path="url(#_clip1)">
      <path
        d="M-2,0.32C6.82,-4.42 36.58,-25.02 53.22,-29.38C69.88,-33.74 83.88,-31.1 97.9,-25.84C111.92,-20.6 153.96,-2.48 137.38,2.12C120.78,6.74 21.2,2.2 -1.64,1.84M1.36,-1.58C10.88,-6.98 40.74,-29.5 57.6,-33.04C74.48,-36.6 89.4,-28 102.58,-22.88C115.78,-17.76 153.52,-6.8 136.74,-2.38C119.96,2.04 24.12,3.54 1.86,3.6"
        style="fill:none;stroke:rgb(0,128,255);stroke-width:2px;" />
    </g>
  </g>
</svg>